# xmcd CD database file
#
# Track frame offsets:
#	150
#	23332
#	54603
#	68683
#	85466
#	93943
#	108745
#	127223
#	131870
#	147827
#
# Disc length: 2300 seconds
#
# Revision: 1
# Processed by: cddbd v1.5.1PL0 Copyright (c) Steve Scherf et al.
# Submitted via: CDex 1.51
#
DISCID=8e08fa0a
DTITLE=S.E.N.S. - Space Oz No Boken
DYEAR=1992
DGENRE=New Age
TTITLE0=Into The Space
TTITLE1=Long Way Home
TTITLE2=Black Hole
TTITLE3=Friendship
TTITLE4=To The Adventure Of The Dream ~ Toy Box Version
TTITLE5=Wars
TTITLE6=Rainbow On The Moon
TTITLE7=Long Way Home - Strings Version
TTITLE8=The Traveler Of The Light ~ Harmonica Version
TTITLE9=Love Song For You
EXTD=YEAR: 1992
EXTT0=
EXTT1=
EXTT2=
EXTT3=
EXTT4=
EXTT5=
EXTT6=
EXTT7=
EXTT8=
EXTT9=
PLAYORDER=
